<svg baseProfile="basic" xmlns="http://www.w3.org/2000/svg" xmlns:xlink="http://www.w3.org/1999/xlink" width="412" height="439" xml:space="preserve"><defs><path id="a" d="M0-192h412v631H0z"/></defs><clipPath id="b"><use xlink:href="#a" style="overflow:visible"/></clipPath><g style="clip-path:url(#b)"><linearGradient id="c" gradientUnits="userSpaceOnUse" x1="277.26" y1="103.14" x2="380.155" y2="17.502" gradientTransform="matrix(1 0 0 -1 0 248)"><stop offset="0" style="stop-color:#d0e5fc"/><stop offset="1" style="stop-color:#3e98ff"/></linearGradient><path style="fill-rule:evenodd;clip-rule:evenodd;fill:url(#c)" d="M355 95c-2.1-8.4-9-19.7-41.9-31.6-47.7-17.4-79.5 12.5-98.4 8.3-19-4.1-48.8-.5-60.1 32.2-11.3 32.7-4.7 76.9 14 86.1 18.8 9.3 41.6 20.6 80.6 18.7 42.8-2 114.9.5 141.9-27.2 0 0 .4-26.8-7.8-42.9-5.4-10.5-13.9-18.7-20-25.2 5.6 1.9 12.1 2 14.3-.8 2.9-3.5 3.8-7.2-5.1-10.8-6.2-2.4-13.1-3.1-16.8-3.4v-.1c5.6.4 13.4 2.4 18.8.8 7.2-2.1 5.5-8.9-5.3-10.8-6.8-1.2-11.6 3.3-14.2 6.7z"/><path style="fill-rule:evenodd;clip-rule:evenodd;fill:#fff" d="M216.4 111.1c-15.3 2.4-19.1-9-28.7-16.2-9.7-7.3-27.6-5.9-31.3 5-.8 2.1-1.9 5.8-3.1 10.3-2.4 8.8-5 21.1-4.9 32.9 0 14.4 5 28.4 11.4 33.1 10.7 7.8 30.9 9.2 36.4-10 4.6-16.3-.4-40.9 16.1-41.4 18.5-.6-2.5 43.7 23 58 13.8 7.8 50.5 12.2 66.7-21.2 18.3-38-3-61.7-22.7-68.2-34-11.4-44 14.9-62.9 17.7z"/><linearGradient id="d" gradientUnits="userSpaceOnUse" x1="228.171" y1="102.082" x2="231.111" y2="160.724" gradientTransform="matrix(1 0 0 -1 0 248)"><stop offset="0" style="stop-color:#fff;stop-opacity:0"/><stop offset="1" style="stop-color:#99bce8"/></linearGradient><path style="fill-rule:evenodd;clip-rule:evenodd;fill:url(#d)" d="M216.7 110.9c-15.3 2.4-19.2-8.4-28.9-15.6-9.7-7.2-27.3-7-32.2 5.4-2.4 6.1-7 25.1-7 42.9 0 3 .1 5.9.4 8.6 1 10.4 5.9 20.3 10.9 23.9 10.7 7.7 30.9 9.1 36.4-10 4.6-16.2-.4-40.7 16.1-41.2 18.4-.6-2.5 43.4 23 57.6 13.8 7.7 50.4 12.1 66.6-21.1 18.3-37.8-3.5-62.2-23.2-68.8-33.9-11-43.1 15.3-62.1 18.3zm86.7 47.4s6.4-15.5-1.9-33.6C291.1 102 273 95.8 254.6 97.3c-12.4 1-29.1 24.1-43.5 23-13.6-1-26.5-23.6-36.5-22.8-10.5.7-19.8 4-23.3 20-2.1 9.5-3.4 21.1-2.6 30.9.5 7 .9 14.1 2.9 18.7 2.3 5.2 8.4 9.2 8.4 9.2"/><linearGradient id="e" gradientUnits="userSpaceOnUse" x1="228.928" y1="103.783" x2="223.969" y2="185.703" gradientTransform="matrix(1 0 0 -1 0 248)"><stop offset="0" style="stop-color:#fff;stop-opacity:0"/><stop offset="1" style="stop-color:#99bce8"/></linearGradient><path style="fill-rule:evenodd;clip-rule:evenodd;fill:url(#e)" d="M216.7 110.9c-15.3 2.4-19.2-8.4-28.9-15.6-9.7-7.2-27.3-7-32.2 5.4-2.4 6.1-7 25.1-7 42.9 0 3 .1 5.9.4 8.6 1 10.4 5.9 20.3 10.9 23.9 10.7 7.7 30.9 9.1 36.4-10 4.6-16.2-.4-40.7 16.1-41.2 18.4-.6-2.5 43.4 23 57.6 13.8 7.7 50.4 12.1 66.6-21.1 18.3-37.8-3.5-62.2-23.2-68.8-33.9-11-43.1 15.3-62.1 18.3zm86.7 47.4s2.4-8.7-5.9-26.7c-10.4-22.7-24.7-27.7-43.2-26.2-12.4 1-27.5 20.8-41.9 19.7-13.6-1-25.3-18.8-35.4-18.5-9.9.5-23.8 5-27.3 20.8-2.1 9.5-1.8 11-1 20.7.5 7 .9 14.1 2.9 18.7 2.3 5.2 8.4 9.2 8.4 9.2"/><path style="fill-rule:evenodd;clip-rule:evenodd;fill:#9bbeea" d="M308.4 139.1s5.3-21.5-10.5-36.6C282 87.3 260.2 83.4 243.7 94c-16.7 10.5-21.6 18.9-30.1 16.9-10.7-2.4-23.9-21.1-39.9-21.2-13.4 0-16.3 8.9-16.3 8.9s2.3-4.8 9.8-6c5.5-1 15.3.5 21 4.3 13.3 9 21.5 21.7 34.3 14.9 9.9-5.3 24.2-21.5 39.5-21.6 19.2-.1 33.6 9.9 40.5 20.3 6.8 10.4 5.9 28.6 5.9 28.6zm-109.7 14.2s-2 16.7-9.9 23.3c-3.6 3-10.5 4.9-17.2 3.9-5.3-.9-12.3-4.6-12.3-4.6s4.5 4.6 11.9 5.8c7.3 1.3 16.9-1.3 20.3-5.8 7.1-9.1 7.2-22.6 7.2-22.6zm22.2-11.3s-.8 17.2 3.3 27.8c1.4 3.8 4 8.2 6.9 10.3 10.9 8.2 25.4 8.4 25.4 8.4s-20.6-2.8-27.6-14.2c-7-11.4-8-32.3-8-32.3zm119.3-65.1s10.7 8.9 12.6 15.2c1.9 6.3.9 7.3 3.6 3.6 1.3-1.8 3-4.3 6.4-5.1 3.6-1 9-.3 11.8.8 5.1 1.8 3.9 5.3 3.9 5.3s3.3-6.8-10.4-8.5C358.6 86.9 355 94 355 94s-.1-4.4-6-10.7c-6-6.2-8.8-6.4-8.8-6.4zm14.1 20.9s.9.6 3 .8c4.1.3 11.8.5 17.8 4.1 9 5.4 2.3 10.5 2.3 10.5s3.1-6.1-5-9.7c-4.6-2-12.9-3.1-16.3-4-3.3-.9-1.8-1.7-1.8-1.7zm3.4 6.8s1.5 4.9 7.5 10.4c8.5 7.9 16.4 19.4 19.6 28.1 5.5 15.6 6.7 36.5 6.7 36.5l-1.8.9s0-25.7-7.8-40.9c-3.3-6.4-8.7-15.1-17.8-23.5-7.5-7-6.4-11.5-6.4-11.5zm-202.5-.4s-4 6.1-6 17.1c-2.1 11.3-2.5 28.4 1.4 40.8 6.5 20.7 12.6 23.2 12.6 23.2s-3.4-4-4.5-6.5c-2.3-4.8-4.4-11-6.2-16.8-3.9-12.5-3.4-25.6-2.5-33.1 1.6-15 5.2-24.7 5.2-24.7z"/><path style="fill-rule:evenodd;clip-rule:evenodd;fill:#2a2582" d="M252.7 130.6c-.8-.4-1.6-.6-2.6-.6-4.8 0-8.5 6-8.5 13.5s3.8 13.5 8.5 13.5c4.8 0 8.5-6 8.5-13.5 0-1.4-.1-2.6-.4-3.9l-6.4-.4.9-8.6zM173.1 127c-.7-.3-1.6-.4-2.5-.3-4.4.5-7.3 6.7-6.4 13.9.8 7.2 4.9 12.6 9.3 12.1s7.3-6.7 6.4-13.9c-.1-1.3-.4-2.5-.8-3.7l-6 .3V127z"/><linearGradient id="f" gradientUnits="userSpaceOnUse" x1="327.041" y1="-110.693" x2="357.766" y2="-167.347" gradientTransform="matrix(1 0 0 -1 0 248)"><stop offset="0" style="stop-color:#ff6502"/><stop offset="1" style="stop-color:#ff960d"/></linearGradient><path style="fill-rule:evenodd;clip-rule:evenodd;fill:url(#f)" d="M322 368.7s14.2 10.8 20.2 25.6c6 14.9 7.2 21.5 7.2 21.5s-11.2 5.8-12.7 13.9c-1.5 8.2 11 4.4 17.4-3.3 0 0 7.4 9.9 17.6 8.2 10.2-1.8 3.4-11.7-3.4-15.3 0 0 18 3.9 19.1-3.8 1.1-7.5-22.7-6.6-27.5-3.5 0 0-13.8-33.6-21.2-43.9-7.5-10.3-16.7.6-16.7.6z"/><linearGradient id="g" gradientUnits="userSpaceOnUse" x1="222.971" y1="-166.709" x2="230.955" y2="-117.143" gradientTransform="matrix(1 0 0 -1 0 248)"><stop offset="0" style="stop-color:#ff960d"/><stop offset="1" style="stop-color:#ff6502"/></linearGradient><path style="fill-rule:evenodd;clip-rule:evenodd;fill:url(#g)" d="M235.3 369.7s-3.9 7.2-5.5 21.7c-1.6 14.6-1.9 21.7-1.9 21.7s7.2-5.9 20.8-3.8c13.7 2.1 16.4 7.4 3.8 10.5-12.7 3.1-19.5-5.4-24.5-.9s-11.7 22.3-22 19.7c-10.3-2.6 5-20.9 5-20.9s-16.1 7.3-23.2 1.4c-7-5.9 1.1-10.7 10.3-11 9.2-.3 23.2 3.1 23.2 3.1s4-31.7 1.9-40.4-4-14.1-4-14.1l16.1 13z"/><linearGradient id="h" gradientUnits="userSpaceOnUse" x1="304.908" y1="-62.953" x2="238.977" y2="-200.486" gradientTransform="matrix(1 0 0 -1 0 248)"><stop offset="0" style="stop-color:#d0e5fc"/><stop offset="1" style="stop-color:#3e9aff"/></linearGradient><path style="fill-rule:evenodd;clip-rule:evenodd;fill:url(#h)" d="M366.8 338.7c4.5 1.9 15.4 4 26.2 2.9 10.8-1.1 16.1 1.3 4.5 13-11.5 11.8-13.3 11.2-36.4 14.2-23.2 3-67.7 6.4-98 6.8-30.5.4-40.7-2.3-58-15.9-17.3-13.7-24.2-31.5-24.2-31.5s149.4 1.9 167.1 5.9c17.5 4 14.3 2.7 18.8 4.6z"/><path style="fill:none;stroke:#9bbeea;stroke-width:1.7;stroke-linecap:round" d="M394 356.5c-2.4.8-5.4.6-6.7-1.3-1.8-2.5.7-6.1 2.2-6.7-1.5.9-7.9 2.5-9-1.3-.9-3.1 3.1-4.5 3.1-4.5M379.8 364.7c-2.4.7-5.4.5-6.7-1.4-1.7-2.5 3.1-7.4 4.6-8-1.5.9-11.5 4.1-12.6.3-.9-3.1 5-8 5-8-3.6 1.3-8.6 2.5-10.3-1.5-1.7-4 2.3-6.1 4.6-6.7M357.8 367.8c-2.5.8-5.6.5-7-1.6-1.8-2.8 3.2-8.4 4.8-9-1.6 1-9.5 2.7-10.6-1.7-.9-3.5 2.8-7 2.8-7-3.8 1.5-11.6 2.4-13.4-2.1-1.8-4.5 5.1-6.4 7.5-7.1M335.4 370.1c-2.8.9-6.3.6-7.9-1.9-2-3.3 3.6-9.7 5.4-10.4-1.8 1.1-10.9 2.8-12.1-2.2-1-4.1 3.3-7.8 3.3-7.8-4.2 1.7-10 3.2-12.1-1.9-2-5.2 2.7-7.9 5.4-8.7M312.1 371.5c-3.4 1.1-7.5-.6-9.4-3.5-2.5-3.9 4.2-10.2 6.3-11.1-2.2 1.4-11.4 2.6-12.9-3.4-1.2-4.9 2.1-8.6 2.1-8.6-5.2 2-11.6 2.4-14-3.7s2.6-8 5.8-8.9"/><path style="fill-rule:evenodd;clip-rule:evenodd;fill:#2a2582" d="M293.3 120.9c-7.2-10.7-19.4-17.8-33.2-17.8-12.9 0-24.3 6-31.6 15.4-2.8-1.7-7-3.3-12.1-3.5-5.4-.1-9.4.9-11.8 1.9-6.8-12.2-20-20.5-34.9-20.5-14.6 0-27.4 7.9-34.4 19.6l-7.5-5-4.6 8.4 7.9 6.6c-.9 3.3-1.4 6.8-1.4 10.4 0 22 17.9 39.9 39.9 39.9s39.9-17.9 39.9-39.9c0-4.1-.6-8-1.8-11.7 2.2-1.8 5.2-3.1 8.8-2.2 3.7.9 6.1 2.3 7.3 3.5-2.4 5.1-3.9 10.9-3.9 17 0 22 17.9 39.9 39.9 39.9s39.9-17.9 39.9-39.9c0-4.8-.8-9.3-2.3-13.5l8.6-4.6-4.6-7.7-8.1 3.7zM260 110.2c-17.8 0-32.3 14.4-32.3 32.3 0 17.8 14.4 32.3 32.3 32.3s32.3-14.4 32.3-32.3c0-17.8-14.4-32.3-32.3-32.3zm-90.4-6.5c-17.8 0-32.3 14.4-32.3 32.3 0 17.8 14.4 32.3 32.3 32.3 17.8 0 32.3-14.4 32.3-32.3s-14.6-32.3-32.3-32.3z"/><linearGradient id="i" gradientUnits="userSpaceOnUse" x1="217.449" y1="104.969" x2="193.086" y2="104.969" gradientTransform="matrix(1 0 0 -1 0 248)"><stop offset="0" style="stop-color:#ff6502"/><stop offset="1" style="stop-color:#ff960d"/></linearGradient><path style="fill-rule:evenodd;clip-rule:evenodd;fill:url(#i)" d="M213.3 128.6s-8.6-.6-16.4 9.4c-6.2 7.8-10.4 11.1 4 16.9 8.8 3.6 11.1 4.4 14.5-2.2 3.9-7.6 4-18-2.1-24.1z"/><path style="fill-rule:evenodd;clip-rule:evenodd;fill:#ff6502" d="M217.8 143.5s-5.1 5.5-15.2 5c-10-.5-11.2-1.9-11.2-1.9s-1.1 2.6 2.9 5c5 3 13.9 6.5 17.3 4.9 5.7-2.6 6.2-13 6.2-13z"/><path style="fill-rule:evenodd;clip-rule:evenodd;fill:#9bbeea" d="M218.9 195.9c0-.1.1-.1.2-.2.6-.6 1.3-1.4 1.6-1.6.6-.4 1.4-.7 2.4-1.1 1.3-.2 3-.3 4 0 1.1.3 1.9 1.3 2.4 2.3.4 1 .6 2 .7 3 .4 3.7-1.3 7.3-4.4 9.3-.4.3-.9.8-1.5 1.1-.4.3-.9.5-1.4.5-.2 0-.6-.2-.5-.5 0-.2.2-.6.5-.5.4.1.7-.2 1-.4.4-.3.9-.7 1.2-.9 2.7-1.9 4.2-5 4-8.3-.1-.8-.3-1.8-.6-2.7-.4-.7-.9-1.5-1.7-1.6-.8-.3-2.1-.3-3.4-.1-.8.1-1.5.3-1.9.8-.3.3-1.7 1.8-2.4 2.3-.1.1-.3.2-.4.3-.1.1-.3.1-.4 0-.2 0-.3-.2-.5-.2-.1-.1-.2-.4-.2-.7 0-.2.1-.5.3-.8.2-.3.4-.7.4-.9.2-1.2.5-2.5.4-3.6-.3-4.2-1.8-8.2-6.6-8.6-1.4-.2-2.4.7-3.3 1.6-1.4 1.8-2.3 4.4-2.7 6-.1.6-.4 1.5-.3 2.1 0 .5.1 1.4.1 1.4.1.3-.2.6-.5.5-.3.1-.6-.2-.5-.5 0-.1-.1-.9-.2-1.3-.6-1-1.4-1.9-2.3-2.8-1.3-1.2-3.4-2.3-5.4-2.5-1.3-.1-2.5.1-3.3 1-1.1 1.2-1.9 3-2.1 4.8-.2 1.9-.1 3.7.8 5.1.7 1.4 1.9 2.6 3.2 3.8 1.3 1.3 2.4 2.5 3.4 3.9.2.3.1.5-.1.7-.3.2-.5.1-.7-.1-.9-1.3-2.2-2.6-3.3-3.7-1.3-1.3-2.4-2.5-3.3-4-1-1.6-1.2-3.7-.9-5.8.3-2.1 1.2-4 2.3-5.3 1.1-1.2 2.6-1.5 4.1-1.3 2.3.2 4.6 1.4 6 2.9.6.6 1.3 1.3 1.8 1.9.1-.4.1-.7.2-1 .5-1.7 1.4-4.5 2.9-6.3 1-1.3 2.5-2.3 4.1-2.1 5.4.5 7.2 4.9 7.5 9.6.1 1.3-.2 2.7-.4 4-.1-.1-.1.3-.3.5z"/><linearGradient id="j" gradientUnits="userSpaceOnUse" x1="73.871" y1="61.422" x2="167.736" y2="-67.006" gradientTransform="matrix(1 0 0 -1 0 248)"><stop offset="0" style="stop-color:#d4e7fe"/><stop offset="1" style="stop-color:#99bce8"/></linearGradient><path style="fill-rule:evenodd;clip-rule:evenodd;fill:url(#j)" d="M175.8 192.4s-41.1-7-59.3-28.9C98.3 141.7 81.6 87.2 70 64.3 56.1 36.9 22.4 39.7 30.2 79.6c5.7 29 22.9 60.9 22.9 60.9s-15-23.6-30.1-33.7C7.9 96.7-1.1 122.6 11.7 149.2c12.8 26.6 32.4 50.1 54.5 63.7 0 0-7-3.1-15.7-7.5-10.5-5.4-23-14.3-29.8-12.2-14.2 4.5-2.5 52.6 21.7 63 24.2 10.4 24.5 7.3 24.5 7.3s-2.4 2.1-7.6 3c-8.4 1.4-20.4 2.9-15.9 11.7 7.6 14.3 31.8 17.5 50.2 12.9 18.4-4.5 28.7-16.1 28.7-16.1s-14.7 16.5-.1 23.4c14.6 6.9 22.9.9 36.2-22.3 13.4-23.2 17.4-83.7 17.4-83.7z"/><linearGradient id="k" gradientUnits="userSpaceOnUse" x1="131.726" y1="2.05" x2="141.712" y2="-60.788" gradientTransform="matrix(1 0 0 -1 0 248)"><stop offset="0" style="stop-color:#d0e4fc;stop-opacity:0"/><stop offset="1" style="stop-color:#88c0ff"/></linearGradient><path style="fill-rule:evenodd;clip-rule:evenodd;fill:url(#k)" d="M160.5 245.7s-5.3 55.3-25.6 55.6-23.3-11.2-17.4-20.5c5.8-9.3-10.3-.4-16.9-45.9-6.6-45.4 59.8-32.2 59.9 10.8z"/><linearGradient id="l" gradientUnits="userSpaceOnUse" x1="99.757" y1="-9.026" x2="116.106" y2="-36.253" gradientTransform="matrix(1 0 0 -1 0 248)"><stop offset="0" style="stop-color:#d0e4fc;stop-opacity:0"/><stop offset="1" style="stop-color:#88c0ff"/></linearGradient><path style="fill-rule:evenodd;clip-rule:evenodd;fill:url(#l)" d="M155.5 239.5s-17.5 27.6-42.6 43.3c-10.5 6.6-24.4 9.8-35.5 10-11.4.3-15.8-1.7-21.3-3.8-12.3-4.9-16.2-12.8-13.1-16.4 8.9-10.5 22.8-5.2 34.3-14.7 18.7-15.6 64.8-79 78.2-18.4z"/><linearGradient id="m" gradientUnits="userSpaceOnUse" x1="89.695" y1="36.233" x2="80.42" y2="-16.736" gradientTransform="matrix(1 0 0 -1 0 248)"><stop offset="0" style="stop-color:#d0e4fc;stop-opacity:0"/><stop offset="1" style="stop-color:#88c0ff"/></linearGradient><path style="fill-rule:evenodd;clip-rule:evenodd;fill:url(#m)" d="M153.2 246.8s-73.6 27.5-100.1 14.7c-26.4-12.8-38.4-44-31.1-55.8s17.8-5 46.6 4.8c29 9.8 78.4-20.5 84.6 36.3z"/><linearGradient id="n" gradientUnits="userSpaceOnUse" x1="72.156" y1="73.055" x2="37.739" y2="44.821" gradientTransform="matrix(1 0 0 -1 0 248)"><stop offset="0" style="stop-color:#d0e4fc;stop-opacity:0"/><stop offset="1" style="stop-color:#88c0ff"/></linearGradient><path style="fill-rule:evenodd;clip-rule:evenodd;fill:url(#n)" d="M155.1 223S79.2 232.3 50 202.4s-41.6-49-39.5-73.4c2.2-24.4.6-28.7 16.5-16.5s30.7 33.7 53.6 55.3c23.1 21.6 67.6 6.3 74.5 55.2z"/><linearGradient id="o" gradientUnits="userSpaceOnUse" x1="89.715" y1="105.922" x2="56.994" y2="78.483" gradientTransform="matrix(1 0 0 -1 0 248)"><stop offset="0" style="stop-color:#d0e4fc;stop-opacity:0"/><stop offset="1" style="stop-color:#88c0ff"/></linearGradient><path style="fill-rule:evenodd;clip-rule:evenodd;fill:url(#o)" d="M163.5 206.6s-71.1-.2-100.8-50.2C33 106.5 21.8 76 36.4 60.9 51 45.7 59.2 48.9 69 74.6c9.8 25.6 27.6 87.1 53.1 101.4 25.3 14.4 41.4 30.6 41.4 30.6z"/><linearGradient id="p" gradientUnits="userSpaceOnUse" x1="143.38" y1="51.598" x2="178.687" y2="-31.346" gradientTransform="matrix(1 0 0 -1 0 248)"><stop offset="0" style="stop-color:#377ef4"/><stop offset="1" style="stop-color:#0047bc"/></linearGradient><path style="fill-rule:evenodd;clip-rule:evenodd;fill:url(#p)" d="M176.1 191.8 142 181.2s-4 43.5 6.7 78.6c9.9 32.2 3.6 39 3.6 39s18.1 3.8 24.9-10.5c4.1-8.7-9.5-28.5-6.7-44.2 7.3-41.2 5.6-52.3 5.6-52.3z"/><linearGradient id="q" gradientUnits="userSpaceOnUse" x1="57.185" y1="-8.619" x2="25.392" y2="59.417" gradientTransform="matrix(1 0 0 -1 0 248)"><stop offset="0" style="stop-color:#ff6502"/><stop offset="1" style="stop-color:#ff960d"/></linearGradient><path style="fill-rule:evenodd;clip-rule:evenodd;fill:url(#q)" d="M66 213s-32.4-25.1-45.3-23.5C7.9 191.2 5 227.3 28 246.6c23 19.1 36.7 17.6 36.7 17.6s-41.5-10.8-39.3-46.4c.8-14.6 4.9-16.9 12.5-16C49 202.8 66 213 66 213z"/><linearGradient id="r" gradientUnits="userSpaceOnUse" x1="48.095" y1="112.136" x2="91.666" y2="173.786" gradientTransform="matrix(1 0 0 -1 0 248)"><stop offset="0" style="stop-color:#ff6502"/><stop offset="1" style="stop-color:#ff960d"/></linearGradient><path style="fill-rule:evenodd;clip-rule:evenodd;fill:url(#r)" d="M112.8 159.4c.1.1-13.2-24.7-23.6-50.1-5.6-13.7-11.3-28.4-16.8-40.4C65 52.5 57.4 38 46.7 36.2 37 34.7 35.1 39 32 43.8c-7.3 11.4-4.1 30.8 2.1 52.5 3.8 13.6 8.1 21.3 8.1 21.3s-14.7-50.5 10-50.5c11.6 0 18.1 21.2 35.3 53.5 5.2 10.2 16.4 28.2 25.3 38.8zM53 139.9S39.3 118 26.4 104.6c-5.6-5.8-12.9-11-18.1-8.2-6.8 3.8-10.6 18.2-6.4 31.2 7.2 23.2 18.1 51.4 43 69.1 0 0-18.7-12.2-29-49.2-4.6-16.7-6-36.4 1.9-36.4 14 .2 35.2 28.8 35.2 28.8z"/><linearGradient id="s" gradientUnits="userSpaceOnUse" x1="201.153" y1="14.521" x2="352.856" y2="-99.444" gradientTransform="matrix(1 0 0 -1 0 248)"><stop offset="0" style="stop-color:#377ef4"/><stop offset="1" style="stop-color:#0f56cb"/></linearGradient><path style="fill-rule:evenodd;clip-rule:evenodd;fill:url(#s)" d="m380.8 325.4-9.3 15.4s-15.8 2-42.1-.9c-21.1-2.4-56.4-8.8-75.2-9.8-42.2-2.1-68.5 7.5-68.5 7.5s-31.6-28.6-25.4-83.7c6.3-55.1 15.2-62.2 15.2-62.2s38 17.9 91.1 12.9c53.1-5 57.7-5.5 82.2 45.2 24.6 50.6 32 75.6 32 75.6z"/><path style="fill:none;stroke:#6ca5ec;stroke-width:2;stroke-linecap:round;stroke-linejoin:round;stroke-miterlimit:1.5" d="M297.9 202.4s-23.1 5.5-58.2 3-64.9-13.1-64.9-13.1l-.6 1s14.2 25.1 64 27.7c30.7-2.9 59.7-18.6 59.7-18.6zM197.4 199.3l-4.4 9.9m-5.3-12.3-3.8 6.6M220.2 203.5l-3 14.1m-9.5-16.6-4 13M244 206.3l-1.4 13.5m-9.8-14.2-2.1 14.6M263.1 206.2l.3 10m-9.7-9.7L253 218"/><path style="fill:#987afa;stroke:#6645e0;stroke-width:1.6182;stroke-linecap:round;stroke-linejoin:round;stroke-miterlimit:1.3521" d="M243.5 311c20.2 0 36.5-16.3 36.5-36.5S263.7 238 243.5 238 207 254.3 207 274.5s16.3 36.5 36.5 36.5z"/><path style="fill:#987afa;stroke:#6645e0;stroke-width:1.356;stroke-linecap:round;stroke-linejoin:round;stroke-miterlimit:1.1298" d="M244 305c16.6 0 30-13.4 30-30s-13.4-30-30-30-30 13.4-30 30 13.4 30 30 30z"/><path style="fill-rule:evenodd;clip-rule:evenodd;fill:#fff" d="M233 262h8.7l.2 16.9h12.8l.3 7.8-21.8.3-.2-25z"/><path style="fill:none;stroke:#fff;stroke-width:1.6182;stroke-linecap:round;stroke-linejoin:round;stroke-miterlimit:1.3521" d="m245 276.4-.3-17.4-14.7.2.5 30.8 27.5-.3-.3-13.6-12.7.3z"/><path style="fill-rule:evenodd;clip-rule:evenodd;fill:#4c0081;fill-opacity:.45" d="M284.8 287.2s-10.4 4.6-25-2c-14.4-6.5-22.2-15.2-22.8-26.8-.6-11.7 26.5-4 26.5-4l21.3 32.8z"/><path style="fill-rule:evenodd;clip-rule:evenodd;fill:#023b98" d="M411 266.4s-2 31.5-15.1 45.3c-13.1 13.8-24 29.9-24 29.9s2-16.9-8.5-18.8c-10.5-1.9-23 .9-27.2-7.3s-6.9 2.5-25.5-1.1-33-9.4-30.3-19.8c2.6-10.4 68.7-9.2 86.7-17.8 18-8.7 43.9-10.4 43.9-10.4z"/><path style="fill-rule:evenodd;clip-rule:evenodd;fill:#6844e1" d="M369 198.6s.4-23.1-.3-27c-.5-3.9-3.4-5.8-13.4-6-10.5-.3-57 .5-57 .5s4.3 3 4.1 6.8c-.1 3.8-6 3.4-6 3.4l.5 23.5 72.1-1.2z"/><linearGradient id="t" gradientUnits="userSpaceOnUse" x1="324.604" y1="77.051" x2="363.757" y2="64.216" gradientTransform="matrix(1 0 0 -1 0 248)"><stop offset="0" style="stop-color:#fff"/><stop offset="1" style="stop-color:#b3b3b3"/></linearGradient><path style="fill-rule:evenodd;clip-rule:evenodd;fill:url(#t)" d="M363.4 177.4c5.3-3.5 5.3-8-1.8-9.3-6.8-1.3-61.5.1-61.5.1s3.5 8.7-3.4 8.7c-4.5 0 62.3 3.4 66.7.5z"/><linearGradient id="u" gradientUnits="userSpaceOnUse" x1="332.591" y1="41.637" x2="332.9" y2="66.748" gradientTransform="matrix(1 0 0 -1 0 248)"><stop offset="0" style="stop-color:#4015d1"/><stop offset="1" style="stop-color:#6844e1"/></linearGradient><path style="fill-rule:evenodd;clip-rule:evenodd;fill:url(#u)" d="M296.2 176.4s56.4 3.6 67.3-.4c4.9-1.9 5.3-5.3 5.3-5.3l.6 29.6-73.3 5 .1-28.9z"/><linearGradient id="v" gradientUnits="userSpaceOnUse" x1="317.939" y1="-11.076" x2="283.589" y2="-83.42" gradientTransform="matrix(1 0 0 -1 0 248)"><stop offset="0" style="stop-color:#d0e5fc"/><stop offset="1" style="stop-color:#3e98ff"/></linearGradient><path style="fill-rule:evenodd;clip-rule:evenodd;fill:url(#v)" d="M390.9 294s5.8-46.3-33.6-73.9c-40.2-28.1-62.4-35.8-86.4-17.6s-39.7 32.2-26.5 49.3c13.2 17.2 14.7 25.1 30.8 27.9 16.1 2.8 11.2 3.9 11.2 3.9s-9.4.4-.1 9.4c9.2 9.2 32 14.8 38.3 12.5 6.3-2.3 6.4-1 6.4-1s-3.3 12.9 11.8 13.7c14.9.9 39-14.8 48.1-24.2z"/><linearGradient id="w" gradientUnits="userSpaceOnUse" x1="329.22" y1="-29.578" x2="327.152" y2="-62.926" gradientTransform="matrix(1 0 0 -1 0 248)"><stop offset="0" style="stop-color:#d0e5fc"/><stop offset="1" style="stop-color:#68afff"/></linearGradient><path style="fill-rule:evenodd;clip-rule:evenodd;fill:url(#w)" d="M375.8 268.7s-25.3 36.3-54.5 37c-29.2.8-38.8-18.9-38.8-18.9s2.6-11.5 13.6-20.5c10.9-9 19.2-17.2 28.3-19.4 9.2-2.2 37 2 51.4 21.8z"/><linearGradient id="x" gradientUnits="userSpaceOnUse" x1="304.754" y1="-2.905" x2="297.714" y2="-70.472" gradientTransform="matrix(1 0 0 -1 0 248)"><stop offset="0" style="stop-color:#d0e5fc"/><stop offset="1" style="stop-color:#68afff"/></linearGradient><path style="fill-rule:evenodd;clip-rule:evenodd;fill:url(#x)" d="M360 243.8s-30.1 39.5-64.9 40.3c-34.8.9-46.2-20.6-46.2-20.6s3.1-12.5 16.2-22.3c12.9-9.8 22.8-18.7 33.8-21.1 10.9-2.4 43.8 2.3 61.1 23.7z"/><linearGradient id="y" gradientUnits="userSpaceOnUse" x1="291.919" y1="21.837" x2="284.878" y2="-45.73" gradientTransform="matrix(1 0 0 -1 0 248)"><stop offset="0" style="stop-color:#d0e5fc"/><stop offset="1" style="stop-color:#68afff"/></linearGradient><path style="fill-rule:evenodd;clip-rule:evenodd;fill:url(#y)" d="M347.2 219s-30.1 39.5-64.9 40.3c-34.8.9-46.2-20.6-46.2-20.6s3.1-12.5 16.2-22.3c12.9-9.8 22.8-18.7 33.8-21.1 10.7-2.2 43.8 2.3 61.1 23.7z"/><linearGradient id="z" gradientUnits="userSpaceOnUse" x1="252.563" y1="22.927" x2="398.301" y2="-39.595" gradientTransform="matrix(1 0 0 -1 0 248)"><stop offset="0" style="stop-color:#d0e5fc;stop-opacity:0"/><stop offset=".35" style="stop-color:#c2ddfd;stop-opacity:5.000000e-02"/><stop offset="1" style="stop-color:#3e98ff;stop-opacity:.52"/></linearGradient><path style="fill-rule:evenodd;clip-rule:evenodd;fill:url(#z)" d="M390.9 294s5.8-46.3-33.6-73.9c-40.2-28.1-62.4-35.8-86.4-17.6s-39.7 32.2-26.5 49.3c13.2 17.2 14.7 25.1 30.8 27.9 16.1 2.8 11.2 3.9 11.2 3.9s-9.4.4-.1 9.4c9.2 9.2 32 14.8 38.3 12.5 6.3-2.3 6.4-1 6.4-1s-3.3 12.9 11.8 13.7c14.9.9 39-14.8 48.1-24.2z"/><linearGradient id="A" gradientUnits="userSpaceOnUse" x1="292.401" y1="-39.711" x2="332.031" y2="-55.021" gradientTransform="matrix(1 0 0 -1 0 248)"><stop offset="0" style="stop-color:#ff960d"/><stop offset="1" style="stop-color:#ff5a00"/></linearGradient><path style="fill-rule:evenodd;clip-rule:evenodd;fill:url(#A)" d="M353 292.4s-21.6 24.2-56.2 15.2c-32.6-8.5-16.7-25-16.7-25l9.9 1.1s-4.5 13.3 14.8 15.7c23.7 3.2 35.2 3.2 48.2-7z"/><linearGradient id="B" gradientUnits="userSpaceOnUse" x1="273.916" y1="-17.48" x2="305.421" y2="-29.088" gradientTransform="matrix(1 0 0 -1 0 248)"><stop offset="0" style="stop-color:#ff960d"/><stop offset="1" style="stop-color:#ff5a00"/></linearGradient><path style="fill-rule:evenodd;clip-rule:evenodd;fill:url(#B)" d="M334.9 268.4s-24.2 23.7-63.1 14.8c-38.9-8.9-36-28.1-36-28.1l18.7 2.1S258 272.5 281 278c20 4.7 29.8 5.4 53.9-9.6z"/><linearGradient id="C" gradientUnits="userSpaceOnUse" x1="244.654" y1="36.107" x2="289.712" y2="12.724" gradientTransform="matrix(1 0 0 -1 0 248)"><stop offset="0" style="stop-color:#ff960d"/><stop offset="1" style="stop-color:#ff5a00"/></linearGradient><path style="fill-rule:evenodd;clip-rule:evenodd;fill:url(#C)" d="M311.3 194.8s-16.4-9-38.8 5.1c-22.3 14.2-52.8 28.2-54.4 37.5-1.5 9.3 6 25.7 50.2 24.3 35.3-1.1 45.9-13.8 45.9-13.8s-31.9 18.7-57.2 4.5c-19.1-10.7-16.8-24.3 1.1-37.5 18.2-12.9 27.2-23.9 53.2-20.1z"/><linearGradient id="D" gradientUnits="userSpaceOnUse" x1="371.962" y1="23.448" x2="429.931" y2="-15.298" gradientTransform="matrix(1 0 0 -1 0 248)"><stop offset="0" style="stop-color:#377ef4"/><stop offset="1" style="stop-color:#0047bc"/></linearGradient><path style="fill-rule:evenodd;clip-rule:evenodd;fill:url(#D)" d="M389.5 295.7s18.1-12.4 21-23c2.9-10.5 1.9-46.7-3.3-62-5.1-15.3-15.4-32.4-15.4-32.4s-12.4 13.4-32.8 16.3c-20.3 2.9-45.2.9-45.2.9s55.1 19.2 69.4 59.1c10.9 30.9 6.3 41.1 6.3 41.1z"/><path style="fill:none;stroke:#044bc0;stroke-width:1.7;stroke-linecap:round;stroke-linejoin:round;stroke-miterlimit:1.0542" d="M389.4 294.8s5.3-35.6-20.3-63.3C346.5 206.9 316 196 316 196"/><path style="fill:none;stroke:#044bc0;stroke-width:1.7;stroke-linecap:round;stroke-linejoin:round;stroke-miterlimit:1.0542" d="M395.9 289.7s3.2-37.6-20-64-31.2-28.8-31.2-28.8M390 251.1l-5.7 3.3M392.5 261l-4.9 3.3M395.7 280.1l-4.9 3.3M395.7 290l-6.5 5M368.8 218l-7.3 4.1M374.5 224.6l-7.3 4.1"/><path style="fill:none;stroke:#044bc0;stroke-width:1.7;stroke-linecap:round;stroke-linejoin:round;stroke-miterlimit:1.5" d="m353.7 203.5-10.2 6.1M361.2 210.3l-8.7 5.2"/><path style="fill:none;stroke:#044bc0;stroke-width:1.7;stroke-linecap:round;stroke-linejoin:round;stroke-miterlimit:1.0542" d="m380.2 232-6.5 4.1M385.9 241.2l-6.5 4.1M345.5 197.7l-12.7 6.2m-.8-7.5-6.9 2.9m19.6-2.5-28.2-.8M394.9 271l-4.9 3.3"/><path style="fill:none;stroke:#044bc0;stroke-width:2.1435;stroke-linecap:round;stroke-linejoin:round;stroke-miterlimit:1.0542" d="M141.6 182.3s-3.3 37.5 2.3 57.1c5.5 19.6 13.1 43.1 9.1 58.6"/><linearGradient id="E" gradientUnits="userSpaceOnUse" x1="253.037" y1="236.503" x2="275.339" y2="150.472" gradientTransform="matrix(1 0 0 -1 0 248)"><stop offset="0" style="stop-color:#ff960d"/><stop offset="1" style="stop-color:#ff5a00"/></linearGradient><path style="fill-rule:evenodd;clip-rule:evenodd;fill:url(#E)" d="M351.8 85.8s1.3-24.9-16.8-38.6c-21.6-16.4-38-13.6-45.4-22.9-8.7-10.7-12.1-19.3-26-18.8-17.2.7-16 21.6-8.3 32.6 7.7 11 15.3 13.1 15.3 13.1s-9.5-.5-19.6-8.6c-10.1-7.9-16-17-28.2-10.9-12.3 6-6.5 17-4 22.5 0 0-11.8-10.9-23.2-10.2-14.9 1-14.5 18.3-7 20.3 7.6 2 19 1.5 42.3-2.1 23.3-3.5 48.9-13.6 67.2-8.8 18.5 4.8 41.7 15 53.7 32.4z"/><path style="fill-rule:evenodd;clip-rule:evenodd;fill:#ff960d" d="M352 87.1s-11.3-30.5-59.7-35.4c-48.3-4.9-51.9 10.4-72.6 11.4s-27.6-1-36.4 2.5c-8.8 3.6-16 16.8-16 16.8s13.1-16.5 29.8-9.6c16.8 6.9 16.6 14.4 29.1 6.8 12.5-7.6 23.7-19.4 53.2-19.6 29.7.1 51.1 4.2 72.6 27.1z"/><path style="fill-rule:evenodd;clip-rule:evenodd;fill:#ff5a00" d="M351.3 86.3c.3.3-23-30.6-71.9-28.9-35.7 1.2-49.3 21.4-59.6 18.6-10.3-2.8-23.1-8.8-35.1-6.1-8.2 1.7-16.6 11.7-16.6 11.7s17.6-14.8 35.1-5.2c17.6 9.7 18.1 8 34.3 0 16.2-7.9 49.6-22.2 78.3-11.3 24.9 9.6 35.2 21 35.5 21.2z"/><path style="fill:none;stroke:#044bc0;stroke-width:2.1435;stroke-linecap:round;stroke-linejoin:round;stroke-miterlimit:1.0542" d="m155 243-8.5 2.4M156 256l-6 1M158 270l-5 1M153 231l-10 3M151.5 184s-1.7 36.7 2.8 55.5c4.5 18.9 4.1 56.7 4.1 56.7M150.3 192.5l-8.8-2M151 184l-8.8-2M151.6 220.5l-10.7 1M151 210.9l-9.3-.9M151 200.9l-9.3-.9"/></g></svg>